PathFileType	4	(X/Y/Z)	0_coords_data.trc
DataRate	CameraRate	NumFrames	NumMarkers	Units	OrigDataRate	OrigDataStartFrame	OrigNumFrames
30.0	30.0	6	21	m	30.0	1	72
Frame#	Time	THUMB_TIP	THUMB_IP	THUMB_MCP	THUMB_CMC	INDEX_TIP	INDEX_DIP	INDEX_PIP	INDEX_MCP	MIDDLE_TIP	MIDDLE_DIP	MIDDLE_PIP	MIDDLE_MCP	RING_TIP	RING_DIP	RING_PIP	RING_MCP	PINKY_TIP	PINKY_DIP	PINKY_PIP	PINKY_MCP	WRIST
X1	Y1	Z1	X2	Y2	Z2	X3	Y3	Z3	X4	Y4	Z4	X5	Y5	Z5	X6	Y6	Z6	X7	Y7	Z7	X8	Y8	Z8	X9	Y9	Z9	X10	Y10	Z10	X11	Y11	Z11	X12	Y12	Z12	X13	Y13	Z13	X14	Y14	Z14	X15	Y15	Z15	X16	Y16	Z16	X17	Y17	Z17	X18	Y18	Z18	X19	Y19	Z19	X20	Y20	Z20	X21	Y21	Z21
0	0.0	-0.001224290013313293	-0.09565419769287109	0.9908870239257812	0.00241535997390747	-0.0680811996459961	0.9999970092773437	-0.009258970260620118	-0.04960580062866211	1.02427001953125	-0.01393649959564209	-0.011837699890136718	1.04122998046875	-0.008401960372924804	-0.018531200408935546	1.01522998046875	0.007799069881439209	-0.017055599212646485	1.0053800048828125	0.012866700172424316	-0.02027949905395508	0.9797420043945313	-0.03199410057067871	-0.024605199813842772	0.9804760131835938	-0.000249455004930496	-0.002901750087738037	1.0170999755859376	0.008385720252990723	0.0007469599843025201	1.0088300170898437	0.014767900466918945	0.003552700042724609	0.9790139770507813	-0.033592899322509764	0.001561460018157959	0.9762039794921875	-0.0031270499229431154	0.01198859977722168	1.0226400146484376	0.006473360061645508	0.016911300659179687	1.0186900024414063	0.018645500183105467	0.02351460075378418	0.9949569702148438	-0.027377500534057617	0.026430500030517577	0.9819949951171875	-0.008048529624938966	0.029674400329589845	1.02502001953125	0.00577757978439331	0.033908199310302735	1.018489990234375	0.012623299598693847	0.04357410049438477	1.000030029296875	-0.023035900115966797	0.04939780044555664	0.9916900024414063	-0.037722698211669924	0.013883299827575683	1.0628800048828124
1	0.03333333333333333	-0.001545189976692199	-0.09552349853515625	0.9907589721679687	0.002245009899139404	-0.06795880126953124	0.9999500122070313	-0.009489230155944824	-0.04948160171508789	1.024260009765625	-0.013925299644470215	-0.011798800468444825	1.0411700439453124	-0.00840412998199463	-0.017876399993896484	1.0159600219726563	0.0077682299613952635	-0.016691699981689453	1.005489990234375	0.012882699966430664	-0.019819299697875978	0.9797319946289063	-0.032052600860595706	-0.024126199722290038	0.9804190063476562	-0.0005053960084915161	-0.00262020993232727	1.0174099731445312	0.008422499656677246	0.001142959952354431	1.0089400024414064	0.014795599937438965	0.003977010011672973	0.9790490112304687	-0.0335724983215332	0.002021950006484985	0.9761640014648437	-0.004113019943237305	0.012429100036621094	1.0233099975585938	0.006470170021057129	0.017263999938964845	1.019	0.01864739990234375	0.023813199996948243	0.9951530151367187	-0.02738859939575195	0.026903799057006836	0.9820819702148438	-0.007909820079803467	0.030075599670410156	1.0249300537109376	0.0059560399055480955	0.03418379974365234	1.018510009765625	0.012356800079345703	0.04408440017700195	1.0003099975585938	-0.02290220069885254	0.049766899108886715	0.9918469848632813	-0.037725498199462894	0.01409850025177002	1.062989990234375
2	0.06666666666666667	-0.0016874699592590331	-0.0952677001953125	0.9907169799804687	0.0021494998931884763	-0.067756103515625	0.9999169921875	-0.009417070388793945	-0.049309101104736325	1.024260009765625	-0.013784500122070312	-0.011502799987792968	1.0414200439453125	-0.008233949661254883	-0.017833900451660157	1.0152899780273437	0.007932690143585205	-0.01642099952697754	1.005489990234375	0.012940699577331544	-0.019520999908447266	0.9796820068359375	-0.03173749923706055	-0.0237677001953125	0.9802940063476563	-0.0005141639709472651	-0.00235138988494873	1.017530029296875	0.00858335018157959	0.0014569200277328492	1.0089400024414064	0.014907299995422363	0.004251410007476806	0.978989013671875	-0.033543498992919925	0.0023452799320220936	0.9761699829101562	-0.003816849946975708	0.012591300010681152	1.0232899780273437	0.0066726598739624025	0.01749250030517578	1.018739990234375	0.018652999877929687	0.024162599563598633	0.9950130004882812	-0.027319200515747072	0.027201900482177733	0.9820560302734375	-0.007663969993591309	0.029860200881958007	1.02527001953125	0.006124529838562012	0.034548999786376954	1.0183800048828124	0.012694899559020995	0.04419850158691406	1.000280029296875	-0.022773300170898438	0.050089698791503906	0.991864990234375	-0.037561298370361325	0.01422089958190918	1.0626500244140624
3	0.1	-0.001888180017471313	-0.09526439666748047	0.9911010131835938	0.001981420040130615	-0.06771640014648438	1.000219970703125	-0.009582599639892579	-0.04910179901123047	1.0246400146484376	-0.013806900024414063	-0.011278200149536132	1.0413499755859374	-0.008172089576721192	-0.01782670021057129	1.0151799926757812	0.00798376989364624	-0.016337499618530274	1.0053499755859374	0.012908499717712402	-0.019516399383544922	0.9797960205078124	-0.03204710006713867	-0.023676000595092773	0.9805189819335938	-1.9232500344514e-05	-0.0021515800952911367	1.0169199829101563	0.008741450309753419	0.001443029999732971	1.0090999755859376	0.014877499580383301	0.004276179790496827	0.9789600219726563	-0.03359090042114258	0.002423890113830566	0.976176025390625	-0.003217010021209717	0.012575599670410156	1.0224400024414062	0.006773560047149658	0.017569400787353515	1.0185700073242188	0.018743000030517577	0.024146400451660156	0.994822998046875	-0.02729879951477051	0.027291200637817384	0.9820079956054687	-0.007451779842376709	0.030437299728393555	1.0249300537109376	0.006160719871520996	0.03459809875488281	1.0183200073242187	0.012728799819946289	0.04427149963378906	0.9999359741210937	-0.022503799438476562	0.050184898376464844	0.9917479858398438	-0.037346500396728516	0.014565799713134766	1.062739990234375
4	0.13333333333333333	-0.001878119945526123	-0.0951697006225586	0.9910260009765625	0.001953930020332336	-0.06759290313720703	1.0001799926757813	-0.009579409599304199	-0.049097599029541014	1.024280029296875	-0.0138149995803833	-0.011211899757385254	1.04143994140625	-0.008324060440063476	-0.01774570083618164	1.0151400146484375	0.007976190090179443	-0.016160699844360353	1.0049099731445312	0.012789199829101563	-0.01924259948730469	0.979708984375	-0.03196299934387207	-0.023520999908447266	0.9803569946289062	-0.00021136499941349003	-0.0020034298896789552	1.0171599731445313	0.008516929626464843	0.001699290037155151	1.0089199829101563	0.01476669979095459	0.004530089855194092	0.9790460205078125	-0.033602401733398436	0.0025358400344848635	0.9761799926757813	-0.004079669952392578	0.01296619987487793	1.02372998046875	0.006697100162506103	0.017745100021362304	1.018510009765625	0.018569599151611327	0.024376199722290038	0.9947340087890625	-0.02739929962158203	0.027427499771118163	0.9819359741210938	-0.007841199874877929	0.03053660011291504	1.0249000244140625	0.006156109809875489	0.034815898895263674	1.0181599731445312	0.012577300071716308	0.044476799011230465	0.9999539794921875	-0.02281450080871582	0.05027090072631836	0.9915170288085937	-0.03728419876098633	0.014502900123596191	1.06252001953125
5	0.16666666666666666	-0.001931699991226196	-0.09510710144042969	0.9909719848632812	0.0018955899477005001	-0.067527099609375	1.0001599731445312	-0.009667790412902832	-0.049007801055908205	1.0245899658203126	-0.013873700141906739	-0.011204400062561036	1.041469970703125	-0.008398509979248047	-0.017604400634765625	1.0155	0.007830939769744872	-0.01603660011291504	1.0053200073242188	0.012782400131225585	-0.019299299240112304	0.9796400146484375	-0.032137699127197265	-0.023573400497436524	0.9803909912109375	-0.00055530297756195	-0.002052649974822998	1.0173099975585937	0.008437080383300781	0.0017592999935150142	1.0088699951171876	0.014800999641418457	0.004491720199584961	0.9793099975585937	-0.03367839813232422	0.002468090057373047	0.976093017578125	-0.003516870021820068	0.012703800201416015	1.0224400024414062	0.006549280166625976	0.017811199188232422	1.0185700073242188	0.018448400497436523	0.024473600387573242	0.994552978515625	-0.0274911003112793	0.02739200019836426	0.9818720092773437	-0.0077406601905822756	0.030099000930786133	1.0251800537109375	0.005982379913330078	0.03476119995117188	1.0180599975585938	0.01255459976196289	0.04444419860839844	0.9998469848632813	-0.022952600479125975	0.050299598693847654	0.9916329956054688	-0.03760110092163086	0.014535400390625	1.062449951171875
